<svg version="1" xmlns="http://www.w3.org/2000/svg" width="960" height="960" viewBox="0 0 720.000000 720.000000"><path d="M204 90.5L49.5 179.8v360.4l154.9 89.4C289.5 678.8 359.6 719 360 719c.4 0 70.5-40.2 155.6-89.4l154.9-89.4V179.8L515.6 90.4C430.5 41.2 360.3 1 359.6 1.1 359 1.1 289 41.4 204 90.5zm93.5 58.9c23.7 1.4 44.9 2.6 47.1 2.6 3.2 0 4.3.4 4.7 1.9.2 1 .2 2.3-.2 2.9-.3.5-6.8 2.2-14.3 3.7l-13.7 2.8-.3 15.1-.3 15.1-3.9.3c-2.1.2-4.3-.1-4.9-.7-.6-.6-3.8-1.1-7.2-1.1-3.3 0-8.9-.4-12.5-.9-3.6-.5-11.1-1.2-16.7-1.6l-10.3-.7V526h25.4c14 0 26.2.3 27.1.6 1.4.6 1.6 2.6 1.4 15.5 0 8.2-.3 15.7-.6 16.7-.4 1.5-2.9 2-19.1 3.6-36.1 3.4-48.8 4.5-60.7 5.1-6.6.4-13.3.7-15 .8l-3 .2-.3-211.4-.2-211.4 17.2.6c9.5.3 36.7 1.7 60.3 3.1zM209 355.5c0 123.8-.4 202.5-.9 202.5s-6.3-7.3-12.8-16.2c-13.9-18.9-31.4-42.9-32.6-44.3-.4-.6-2.3-3.1-4.2-5.7l-3.5-4.7V345c0-113.3.3-142.4 1.3-143.3.7-.7 12.1-11.9 25.5-25 13.3-13 24.9-23.7 25.7-23.7 1.3 0 1.5 23.2 1.5 202.5zm186.6-196c11.5 3.2 23.2 6.3 25.9 7 4.3 1.1 38.4 10.5 88 24.1 7.2 1.9 14.8 4.1 17 4.8l4 1.3.3 14.7.3 14.7-4.3-.5c-2.4-.3-8.9-.8-14.5-1.2l-10.1-.7-2.6 2.8c-2.4 2.6-2.6 3.4-2.6 13.1 0 11 .8 14.2 4.3 16.3 1.2.8 7.7 1.8 15.7 2.4 7.4.5 13.6 1 13.7 1.1.1.1.3 42.7.5 94.6l.3 94.5-14.9 1.5c-14.1 1.5-15 1.7-17.2 4.3-2.2 2.6-2.4 3.7-2.4 13.8 0 10.5.1 11.1 2.6 13.6l2.6 2.5 14.9-.7 14.9-.7v10.4c0 5.6-.4 10.9-.8 11.5-.5.7-15 7.4-32.3 14.8-17.2 7.5-33.3 14.5-35.6 15.5-2.4 1.1-6.2 2.8-8.5 3.9-2.4 1-6.9 3.1-10 4.5-3.1 1.4-6 2.6-6.3 2.6-.3 0-2.7.9-5.3 2.1-9 4-10.7 4.8-17.2 7.4-3.6 1.5-8.3 3.5-10.5 4.5-31 13.5-35.7 15.3-36.6 13.9-.6-.8-.7-17.2-.3-41.4.3-22 .9-115.9 1.4-208.7.4-92.7 1.1-169.2 1.5-169.8.4-.6 1.3-.9 1.9-.7.7.3 10.7 3.1 22.2 6.2zM359 187.2c0 22.3 0 22.3-1.9 18.8-3.9-7.4-12.2-10-18.8-6-4.5 2.7-6.6 6.4-6.6 11.5 0 15.3 21.8 18.5 26.3 3.9 1-3.3 1.2 134.4.3 172.4-.6 23.6-.7 24.2-2.3 21.4-2.7-4.3-8.9-6.5-14.6-5.1-5 1.3-7.8 4.2-9.5 9.9-1.7 5.5 1.5 12.1 7 14.9 2.2 1.2 5 2.1 6.2 2.1 3.6 0 9-3.2 11-6.4 1.9-3.1 1.9-2.5 1.9 44.9l-.1 48-2-2.8c-7-9.3-20.2-6.8-23.9 4.6-1.6 4.9 0 9.6 4.6 13.7 2.9 2.5 4.3 3 8.6 3 4.5 0 5.4-.4 8.9-3.9l3.9-3.9v36.5l-10.2-1.8c-5.7-1.1-12.1-2.3-14.3-2.7l-4-.8.2-62.9c.1-34.7.3-92.5.3-128.5v-65.5l2 3.3c6 9.8 18.8 9.4 24.1-.9 1.9-3.7 2-4.6.9-8.6-2.1-7.2-8.3-11.2-15.7-10-4 .7-6.7 2.7-9.4 7.2-1.9 2.9-1.9 1.7-1.9-60v-63.1l12.8-2.6c7-1.4 13.5-2.6 14.5-2.7 1.6-.1 1.7 1.6 1.7 22.1zm121.8-16.6c3 .3 6.6.8 8 .9 3.8.5 30.4 3.9 52.7 6.9 10.5 1.4 19.9 2.6 21 2.7 1.7.1 1.6.2-.5.9-2.4.8-2.4.8-.2.9 2.2.1 2.2.2 2.3 16.3.2 88.5-.2 318-.7 319.2-.3.8-2 1.8-3.7 2.1-1.8.3-14.4 2.5-28.1 5-13.7 2.5-25.8 4.4-27 4.2-1.5-.2-.2-1.2 4.9-3.5 3.9-1.8 8.4-3.9 10-4.7 1.7-.7 6.8-3 11.5-5 12-5.1 12-5.1 12-20.6v-12.8l7.2-.3c9.3-.4 9.8-1.1 9.8-16.8 0-15.2-.5-16-10.1-16H543V260h6c5.2 0 6.5-.4 8.6-2.5 2.5-2.5 2.6-2.8 2.2-15.6-.4-15.5-.6-15.9-10.5-15.9H543v-16.4c0-14.1-.2-16.7-1.7-18.4-1.3-1.5-8-3.8-24.8-8.3-12.6-3.4-27-7.3-32-8.6-4.9-1.4-10.2-2.7-11.7-3-1.6-.3-2.8-1-2.8-1.5s1.2-.7 2.8-.4c1.5.3 5.1.8 8 1.2zm47.9 66c2.1.6 2.3 1.2 2.3 6.3v5.7l-6.2-.4c-3.5-.2-8.8-.7-11.8-1.1l-5.4-.6-.4-5.9-.3-5.9 9.8.7c5.3.4 10.8.9 12 1.2zm20.3 6.9v6.5h-6v-13h6v6.5zm-.2 222.2c-.3 6.6-.4 6.8-3 7.1l-2.8.3V459h6.1l-.3 6.7zm-16.8-.3c0 6.4.3 6.2-14.9 7.2l-10.1.7-.2-2.9c-.1-3.6.2-7.7.8-8.3.5-.6 12.4-1.8 19.2-2l5.2-.1v5.4z"/><path d="M460.3 304.6c-10.3 5-19 17.8-23.5 34.6-3.2 11.8-3.2 31.7.1 43.8 4.5 17 13 29.3 23.7 34.6 4.8 2.3 6.3 2.6 12.7 2.2 5.6-.4 8.4-1.1 11.9-3.2 12-7 20.3-22.3 23.4-43.4 3.5-23-3.1-48.5-15.9-61.6-9.6-9.7-21.4-12.3-32.4-7zm9.7 24v15.6l-3.5 4.1c-2 2.3-3.8 5.1-4.1 6.3-.4 1.7-1.5 2.3-5.7 2.8-9.8 1.1-11.7.9-11.7-1.7.2-9.8 5.5-25.9 11.1-33.9 2.3-3.2 10.3-8.8 12.6-8.8 1 0 1.3 3.4 1.3 15.6zm15.3-9.1c1.8 1.9 4.5 5.6 6 8.2 2.8 5.2 6.7 18.2 6.7 22.4 0 2.4-.4 2.7-4.7 3.2-4.7.5-4.9.4-9-4.1l-4.2-4.7-.1-14.3c0-8.3.4-14.2 1-14.2.5 0 2.4 1.6 4.3 3.5zm-8.5 37c2.6 5.7.2 12.4-3.3 9.5-1.8-1.5-2-7.3-.3-10 1.7-2.6 2.2-2.5 3.6.5zm21.6 13.2c-.7 7.3-3.9 18.3-7 24.4-2.5 5.1-8.4 11.9-10.3 11.9-.8 0-1.1-4.3-1.1-14.3v-14.3l2.9-2.8c1.6-1.6 3.5-4.2 4.2-6 1.7-4 2.5-4.6 7.7-4.6h4.2l-.6 5.7zm-32.6 3.2l4.2 5v15.5c0 10.1-.4 15.6-1 15.6-2.5 0-9.1-4.2-11.9-7.7-5.5-6.6-10.3-18.9-11.3-28.8-.3-2.8 0-3 3.7-3.6 10.4-1.6 11.7-1.3 16.3 4zM552.8 181.7c.7.3 1.6.2 1.9-.1.4-.3-.2-.6-1.3-.5-1.1 0-1.4.3-.6.6zM522.8 525.7c.7.3 1.6.2 1.9-.1.4-.3-.2-.6-1.3-.5-1.1 0-1.4.3-.6.6zM507 528c-1.3.8-1.2 1 .3 1 .9 0 1.7-.5 1.7-1 0-1.2-.1-1.2-2 0z"/></svg>